<svg width="38" height="38" viewBox="0 0 38 38" fill="none" xmlns="http://www.w3.org/2000/svg">
<rect x="0.525391" y="0.515015" width="37.0644" height="37.0644" rx="7" fill="#DFDFDF"/>
<path d="M12.9957 11.0472C10.9617 11.0472 9.36975 11.5612 9.08875 13.5162C8.99875 14.1422 9.19673 14.7582 9.65173 15.2032C9.87773 15.4242 10.1167 15.6872 10.4327 15.9532C11.2257 16.6222 12.2367 17.3742 13.1827 18.0472C15.7857 19.8972 17.8408 21.0472 19.0578 21.0472C20.2748 21.0472 22.3298 19.8972 24.9328 18.0472C25.8798 17.3742 26.8908 16.6212 27.6828 15.9532C27.9988 15.6872 28.2378 15.4252 28.4638 15.2032C28.9188 14.7582 29.1168 14.1422 29.0268 13.5162C28.7458 11.5612 27.1538 11.0472 25.1198 11.0472H12.9957ZM9.05774 17.2032V23.0472C9.05774 25.2562 10.8487 27.0472 13.0577 27.0472H25.0578C27.2668 27.0472 29.0578 25.2562 29.0578 23.0472V17.2032C28.2378 17.9822 27.3218 18.7862 26.0268 19.7032C23.1908 21.7112 20.6438 23.0472 19.0578 23.0472C17.4718 23.0472 14.9248 21.7112 12.0887 19.7032C10.7927 18.7862 9.87774 17.9822 9.05774 17.2032Z" fill="#808080"/>
</svg>
