<svg width="38" height="38" viewBox="0 0 38 38" fill="none" xmlns="http://www.w3.org/2000/svg">
<rect x="0.525391" y="0.520996" width="37.0644" height="37.0644" rx="7" fill="#DFDFDF"/>
<path d="M19.0575 7.05347C15.7438 7.05347 13.0575 9.74013 13.0575 13.0535C13.0575 16.3668 15.7438 19.0535 19.0575 19.0535C22.3713 19.0535 25.0575 16.3668 25.0575 13.0535C25.0575 9.74013 22.3713 7.05347 19.0575 7.05347ZM14.4742 20.8455C12.0287 21.8548 10.3909 24.3281 10.3909 27.0535V29.7201C10.3909 30.4561 10.9878 31.0535 11.7242 31.0535H26.3909C27.1273 31.0535 27.7242 30.4561 27.7242 29.7201V27.0535C27.7242 24.3921 26.0773 21.9788 23.6409 20.9281C23.2979 20.7801 22.8983 20.7761 22.5575 20.9281C21.3778 21.4575 20.2285 21.7201 19.0575 21.7201C17.8906 21.7201 16.7373 21.4428 15.5159 20.8868C15.1801 20.7335 14.8153 20.7041 14.4742 20.8455Z" fill="#808080"/>
</svg>
