<svg width="38" height="38" viewBox="0 0 38 38" fill="none" xmlns="http://www.w3.org/2000/svg">
<rect x="0.582153" y="0.0181885" width="37.0644" height="37.0644" rx="7" fill="#DFDFDF"/>
<path d="M15.0576 9.05054C14.5056 9.05054 14.0576 9.49854 14.0576 10.0505C11.8486 10.0505 10.0576 11.8415 10.0576 14.0505V15.1125L28.0576 15.0505V14.0505C28.0576 11.8415 26.2666 10.0505 24.0576 10.0505C24.0576 9.49854 23.6096 9.05054 23.0576 9.05054C22.5056 9.05054 22.0576 9.49854 22.0576 10.0505H16.0576C16.0576 9.49854 15.6096 9.05054 15.0576 9.05054ZM10.0576 17.0505V24.0505C10.0576 26.2595 11.8486 28.0505 14.0576 28.0505H24.0576C26.2666 28.0505 28.0576 26.2595 28.0576 24.0505V17.0505H10.0576Z" fill="#808080"/>
</svg>
