<svg width="38" height="38" viewBox="0 0 38 38" fill="none" xmlns="http://www.w3.org/2000/svg">
<rect x="0.256104" y="0.435303" width="37.0644" height="37.0644" rx="7" fill="#DFDFDF"/>
<path d="M19.0576 8.96753C17.6786 8.96753 16.5526 9.85354 16.2016 11.1205C15.2966 11.3715 14.5306 12.1145 14.2396 12.9785C13.6986 12.9785 13.2296 12.9675 13.0576 12.9675C10.8486 12.9675 9.05762 14.7585 9.05762 16.9675V24.9675C9.05762 27.1765 10.8486 28.9675 13.0576 28.9675H25.0576C27.2666 28.9675 29.0576 27.1765 29.0576 24.9675V16.9675C29.0576 14.7585 27.2666 12.9675 25.0576 12.9675L23.8676 12.9875C23.6236 12.1525 22.7976 11.2795 21.9066 11.0925C21.5546 9.82553 20.4366 8.96753 19.0576 8.96753ZM19.0576 10.9675C19.6096 10.9675 20.0576 11.4155 20.0576 11.9675C20.0576 12.5195 20.5056 12.9675 21.0576 12.9675C21.6096 12.9675 22.0576 13.4155 22.0576 13.9675C22.0576 14.5195 21.6096 14.9675 21.0576 14.9675H17.0576C16.5056 14.9675 16.0576 14.5195 16.0576 13.9675C16.0576 13.4155 16.5056 12.9675 17.0576 12.9675C17.6096 12.9675 18.0576 12.5195 18.0576 11.9675C18.0576 11.4155 18.5056 10.9675 19.0576 10.9675Z" fill="#808080"/>
</svg>
