<svg width="38" height="38" viewBox="0 0 38 38" fill="none" xmlns="http://www.w3.org/2000/svg">
<rect x="0.525879" y="0.362305" width="37.0644" height="37.0644" rx="7" fill="#DFDFDF"/>
<path d="M19.0582 5.01953C13.8013 5.01953 10.1782 8.41615 10.1782 13.3446C10.1782 14.0175 10.1782 14.7321 10.1782 16.1196C10.1782 17.5071 9.93849 18.2564 9.11413 18.8946C9.02089 18.9668 8.63016 19.2817 8.51324 19.3719C6.64105 20.8232 5.72197 22.183 5.73825 24.4446C5.75009 25.9404 7.05989 27.2349 8.69824 27.2196H14.9009C14.9009 27.2196 14.6182 28.0674 14.6182 28.6072C14.6182 30.9063 16.6059 32.7697 19.0582 32.7697C21.5106 32.7697 23.4982 30.9063 23.4982 28.6072C23.4982 28.0674 23.2274 27.2196 23.2274 27.2196H29.4182C31.0521 27.2238 32.3767 25.9487 32.3782 24.4446C32.3811 22.1996 31.4517 20.8163 29.6032 19.3719C29.4818 19.2762 29.0526 18.9695 28.9564 18.8946C28.1498 18.2647 27.9382 17.5071 27.9382 16.1196C27.9382 14.3852 27.9382 13.3446 27.9382 13.3446C27.9382 8.41615 24.3152 5.01953 19.0582 5.01953ZM19.0582 27.2196C19.8752 27.2196 20.5382 27.8412 20.5382 28.6072C20.5382 29.3731 19.8752 29.9947 19.0582 29.9947C18.2413 29.9947 17.5782 29.3731 17.5782 28.6072C17.5782 27.8412 18.2413 27.2196 19.0582 27.2196Z" fill="#808080"/>
</svg>
