<svg width="20" height="20" viewBox="0 0 20 20" fill="none" xmlns="http://www.w3.org/2000/svg">
<path d="M8.4126 0.166748C3.9943 0.166748 0.412698 3.74875 0.412598 8.16675C0.412598 12.5848 3.9943 16.1668 8.4126 16.1668C10.2493 16.1668 11.973 15.5178 13.3234 14.4768L17.6938 18.8858C18.0844 19.2758 18.7408 19.2758 19.1314 18.8858C19.5219 18.4948 19.5219 17.8388 19.1314 17.4478L14.7254 13.0718C15.7662 11.7218 16.4126 10.0038 16.4126 8.16675C16.4126 3.74875 12.8309 0.166748 8.4126 0.166748ZM8.4126 2.16675C11.7263 2.16675 14.4125 4.85275 14.4126 8.16675C14.4126 11.4808 11.7263 14.1668 8.4126 14.1668C5.0989 14.1668 2.4127 11.4808 2.4126 8.16675C2.4126 4.85275 5.0989 2.16675 8.4126 2.16675Z" fill="#808080"/>
</svg>
