<svg width="38" height="38" viewBox="0 0 38 38" fill="none" xmlns="http://www.w3.org/2000/svg">
<rect x="0.257324" y="0.362305" width="37.0644" height="37.0644" rx="7" fill="#DFDFDF"/>
<path d="M22.4473 18.8946C22.4473 20.9147 20.8097 22.5524 18.7896 22.5524C16.7694 22.5524 15.1318 20.9147 15.1318 18.8946C15.1318 16.8744 16.7694 15.2368 18.7896 15.2368C20.8097 15.2368 22.4473 16.8744 22.4473 18.8946Z" fill="#808080"/>
<path d="M15.6723 8.52201C16.6132 5.28238 20.966 5.28238 21.9068 8.52201C22.4076 10.2464 24.0889 11.2691 25.7567 10.8639C28.8899 10.1026 31.0663 14.0744 28.8739 16.5527C27.707 17.8719 27.707 19.9173 28.8739 21.2365C31.0663 23.7148 28.8899 27.6866 25.7567 26.9253C24.0889 26.52 22.4076 27.5427 21.9068 29.2671C20.966 32.5068 16.6132 32.5068 15.6723 29.2671C15.1715 27.5427 13.4902 26.52 11.8224 26.9253C8.68918 27.6866 6.51278 23.7148 8.70516 21.2365C9.87213 19.9173 9.87213 17.8719 8.70516 16.5527C6.51278 14.0744 8.68918 10.1026 11.8224 10.8639C13.4902 11.2691 15.1715 10.2464 15.6723 8.52201Z" fill="#808080"/>
<path d="M22.4473 18.8946C22.4473 20.9147 20.8097 22.5524 18.7896 22.5524C16.7694 22.5524 15.1318 20.9147 15.1318 18.8946C15.1318 16.8744 16.7694 15.2368 18.7896 15.2368C20.8097 15.2368 22.4473 16.8744 22.4473 18.8946Z" stroke="#808080" stroke-width="2"/>
<path d="M15.6723 8.52201C16.6132 5.28238 20.966 5.28238 21.9068 8.52201C22.4076 10.2464 24.0889 11.2691 25.7567 10.8639C28.8899 10.1026 31.0663 14.0744 28.8739 16.5527C27.707 17.8719 27.707 19.9173 28.8739 21.2365C31.0663 23.7148 28.8899 27.6866 25.7567 26.9253C24.0889 26.52 22.4076 27.5427 21.9068 29.2671C20.966 32.5068 16.6132 32.5068 15.6723 29.2671C15.1715 27.5427 13.4902 26.52 11.8224 26.9253C8.68918 27.6866 6.51278 23.7148 8.70516 21.2365C9.87213 19.9173 9.87213 17.8719 8.70516 16.5527C6.51278 14.0744 8.68918 10.1026 11.8224 10.8639C13.4902 11.2691 15.1715 10.2464 15.6723 8.52201Z" stroke="#808080" stroke-width="2"/>
<path d="M23.7898 18.8945C23.7898 17.5684 23.263 16.2967 22.3253 15.359C21.3876 14.4213 20.1159 13.8945 18.7898 13.8945C17.4637 13.8945 16.1919 14.4213 15.2543 15.359C14.3166 16.2967 13.7898 17.5684 13.7898 18.8945H14.9964C14.9964 17.8885 15.396 16.9236 16.1074 16.2122C16.8188 15.5008 17.7837 15.1011 18.7898 15.1011C19.7959 15.1011 20.7607 15.5008 21.4721 16.2122C22.1835 16.9236 22.5832 17.8885 22.5832 18.8945H23.7898Z" fill="#F8F8F8"/>
<path d="M13.7898 18.8945C13.7898 20.2206 14.3166 21.4924 15.2543 22.4301C16.1919 23.3677 17.4637 23.8945 18.7898 23.8945C20.1159 23.8945 21.3876 23.3677 22.3253 22.4301C23.263 21.4924 23.7898 20.2206 23.7898 18.8945H22.5832C22.5832 19.9006 22.1835 20.8655 21.4721 21.5769C20.7607 22.2883 19.7959 22.6879 18.7898 22.6879C17.7837 22.6879 16.8188 22.2883 16.1074 21.5769C15.396 20.8655 14.9964 19.9006 14.9964 18.8945H13.7898Z" fill="#F8F8F8"/>
</svg>
