<svg width="38" height="39" viewBox="0 0 38 39" fill="none" xmlns="http://www.w3.org/2000/svg">
<rect x="0.525513" y="0.991699" width="37.0644" height="37.0644" rx="7" fill="#479DD7"/>
<path fill-rule="evenodd" clip-rule="evenodd" d="M17.2163 10.1906C17.1856 10.1626 17.1542 10.1353 17.1223 10.1088C16.6804 9.74283 16.1196 9.52393 15.5094 9.52393H11.6384C10.2131 9.52393 9.05774 10.7178 9.05774 12.1906V16.1906C9.05774 17.6634 10.2131 18.8573 11.6384 18.8573H15.5094C16.9346 18.8573 18.09 17.6634 18.09 16.1906V12.1906C18.09 11.3941 17.7521 10.6792 17.2163 10.1906Z" fill="#F8F8F8"/>
<path fill-rule="evenodd" clip-rule="evenodd" d="M22.6061 9.52393C21.9958 9.52393 21.435 9.74283 20.9932 10.1088C20.9612 10.1353 20.9299 10.1626 20.8991 10.1906C20.3634 10.6792 20.0255 11.3941 20.0255 12.1906V16.1906C20.0255 17.6634 21.1809 18.8573 22.6061 18.8573H26.4771C27.9023 18.8573 29.0577 17.6634 29.0577 16.1906V12.1906C29.0577 10.7178 27.9023 9.52393 26.4771 9.52393H22.6061Z" fill="#F8F8F8"/>
<path fill-rule="evenodd" clip-rule="evenodd" d="M17.1223 20.7755C16.6804 20.4095 16.1196 20.1906 15.5094 20.1906H11.6384C10.2131 20.1906 9.05774 21.3845 9.05774 22.8573V26.8573C9.05774 28.33 10.2131 29.5239 11.6384 29.5239H15.5094C16.9346 29.5239 18.09 28.33 18.09 26.8573V22.8573C18.09 22.0608 17.7521 21.3459 17.2163 20.8573C17.1856 20.8292 17.1542 20.802 17.1223 20.7755Z" fill="#F8F8F8"/>
<path fill-rule="evenodd" clip-rule="evenodd" d="M22.6061 20.1906C21.9958 20.1906 21.435 20.4095 20.9932 20.7755C20.9612 20.802 20.9299 20.8292 20.8991 20.8573C20.3634 21.3459 20.0255 22.0608 20.0255 22.8573V26.8573C20.0255 28.33 21.1809 29.5239 22.6061 29.5239H26.4771C27.9023 29.5239 29.0577 28.33 29.0577 26.8573V22.8573C29.0577 21.3845 27.9023 20.1906 26.4771 20.1906H22.6061Z" fill="#F8F8F8"/>
</svg>
