<svg width="38" height="38" viewBox="0 0 38 38" fill="none" xmlns="http://www.w3.org/2000/svg">
<rect x="0.578613" y="0.163818" width="37.0644" height="37.0644" rx="7" fill="#F8F8F8"/>
<path d="M18.0305 7.85913C16.2433 7.85913 14.7947 9.3045 14.7946 11.095V12.2411H13.7159C12.7295 12.2014 11.2155 12.8458 10.6485 14.4321L9.40139 14.3984C8.80566 14.3984 8.32265 14.8802 8.32275 15.477C8.32275 16.0738 8.80566 16.5562 9.40139 16.5562H10.48V17.6348H9.40139C8.80566 17.6348 8.32265 18.1159 8.32275 18.7134C8.32275 19.3099 8.80566 19.791 9.40139 19.7921H10.48V20.8707H9.40139C8.80566 20.8707 8.32265 21.3518 8.32275 21.9493C8.32275 22.5458 8.80566 23.028 9.40139 23.028H10.48V24.1066H9.40139C8.80566 24.1066 8.32265 24.5877 8.32275 25.1852C8.32275 25.7817 8.80566 26.2639 9.40139 26.2639H10.48C10.48 28.0501 11.9287 29.4998 13.7159 29.4998H21.2664C23.0536 29.4998 24.5023 28.0501 24.5023 26.2639V25.1852L25.5809 25.1507C27.3681 25.1507 28.8167 23.7054 28.8168 21.9148V11.095C28.8168 9.30461 27.368 7.85892 25.5809 7.85913H18.0305ZM25.5809 10.0164C26.1766 10.0164 26.6597 10.4982 26.6595 11.095V21.8814C26.6595 22.4779 26.1766 22.96 25.5809 22.96L24.5023 22.9935V15.477C24.5023 13.6898 23.0536 12.2411 21.2664 12.2411H16.9518V11.1288C16.9518 10.532 17.4347 10.0501 18.0305 10.0502L25.5809 10.0164Z" fill="#8345E6"/>
</svg>
