<svg width="14" height="14" viewBox="0 0 14 14" fill="none" xmlns="http://www.w3.org/2000/svg">
<path fill-rule="evenodd" clip-rule="evenodd" d="M3.10938 1.68457C3.10938 1.20132 3.50113 0.80957 3.98438 0.80957C4.46762 0.80957 4.85938 1.20132 4.85938 1.68457V2.12207H9.23438V1.68457C9.23438 1.20132 9.62613 0.80957 10.1094 0.80957C10.5926 0.80957 10.9844 1.20132 10.9844 1.68457V2.12207C12.4341 2.12207 13.6094 3.29732 13.6094 4.74707V11.3096C13.6094 12.7593 12.4341 13.9346 10.9844 13.9346H3.10937C1.65963 13.9346 0.484375 12.7593 0.484375 11.3096V4.74707C0.484375 3.29732 1.65963 2.12207 3.10938 2.12207V1.68457ZM9.23438 3.87207C9.23438 4.35532 9.62613 4.74707 10.1094 4.74707C10.5926 4.74707 10.9844 4.35532 10.9844 3.87207C11.4676 3.87207 11.8594 4.26382 11.8594 4.74707V6.05957H2.23438V4.74707C2.23438 4.26382 2.62613 3.87207 3.10938 3.87207C3.10938 4.35532 3.50113 4.74707 3.98438 4.74707C4.46762 4.74707 4.85938 4.35532 4.85938 3.87207H9.23438Z" fill="#8345E5"/>
</svg>
