<svg width="31" height="31" viewBox="0 0 31 31" fill="none" xmlns="http://www.w3.org/2000/svg">
<circle cx="15.3" cy="15.303" r="15.0691" fill="#C4C4C4"/>
<path d="M19.9429 18.0887V19.9458M19.9429 19.9458V21.803M19.9429 19.9458H18.0858M19.9429 19.9458H21.8M8.80005 13.4458H21.8M8.80005 13.4458V12.703C8.80005 11.6629 8.80005 11.1428 9.00247 10.7456C9.18052 10.3961 9.46462 10.112 9.81407 9.93397C10.2113 9.73155 10.7314 9.73155 11.7715 9.73155H12.5143M8.80005 13.4458V18.8315C8.80005 19.8716 8.80005 20.3917 9.00247 20.789C9.18052 21.1384 9.46462 21.4225 9.81407 21.6006C10.2113 21.803 10.7314 21.803 11.7715 21.803H14.3715M21.8 13.4458V15.303M21.8 13.4458V12.703C21.8 11.6629 21.8 11.1428 21.5976 10.7456C21.4196 10.3961 21.1355 10.112 20.786 9.93397C20.3888 9.73155 19.8687 9.73155 18.8286 9.73155H18.0858M12.5143 8.80298V9.73155M12.5143 9.73155V10.6601M12.5143 9.73155H18.0858M18.0858 8.80298V9.73155M18.0858 9.73155V10.6601" stroke="#F8F8F8" stroke-width="2" stroke-linecap="round" stroke-linejoin="round"/>
</svg>
