<svg width="38" height="38" viewBox="0 0 38 38" fill="none" xmlns="http://www.w3.org/2000/svg">
<rect x="0.243408" y="0.163818" width="37.0644" height="37.0644" rx="7" fill="#F8F8F8"/>
<path d="M14.6294 8.32397C11.664 8.32397 9.03286 10.4135 8.4421 13.2802C8.32672 13.8404 8.6913 14.3959 9.252 14.5113C9.8127 14.6265 10.3676 14.2615 10.483 13.7014C10.8763 11.7926 12.6527 10.3972 14.6294 10.3972C15.2019 10.3972 15.666 9.93247 15.666 9.36058C15.666 8.78868 15.2019 8.32397 14.6294 8.32397ZM22.9222 8.32397C22.3497 8.32397 21.8856 8.78806 21.8856 9.36058C21.8856 9.9331 22.3497 10.3972 22.9222 10.3972C24.9012 10.3972 26.6778 11.7875 27.0686 13.7014C27.1832 14.2623 27.7387 14.6257 28.2996 14.5113C28.8605 14.3967 29.224 13.8412 29.1095 13.2802C28.5225 10.4058 25.8912 8.32397 22.9222 8.32397ZM18.7758 10.3972C13.6233 10.3972 9.44636 14.5741 9.44636 19.7266C9.44636 21.9145 10.2261 23.9665 11.4872 25.5575L9.7703 27.2744C9.36551 27.6792 9.36551 28.3597 9.7703 28.7646C10.1751 29.1694 10.8232 29.1694 11.2281 28.7646L12.9449 27.0152C14.5359 28.2763 16.5879 29.0561 18.7758 29.0561C20.9637 29.0561 23.0157 28.2763 24.6067 27.0152L26.356 28.7646C26.7608 29.1694 27.4089 29.1369 27.8138 28.7321C28.2186 28.3273 28.1861 27.6792 27.7813 27.2744L26.0644 25.5252C27.3069 24.0189 28.1052 21.9145 28.1052 19.7266C28.1052 14.5741 23.9284 10.3972 18.7758 10.3972ZM18.7758 14.5436C19.3483 14.5436 19.8124 15.0077 19.8124 15.5802V19.7266C19.8124 20.2991 19.3483 20.7632 18.7758 20.7632H14.6294C14.0569 20.7632 13.5928 20.2991 13.5928 19.7266C13.5928 19.1541 14.0569 18.69 14.6294 18.69H17.7392V15.5802C17.7392 15.0077 18.2033 14.5436 18.7758 14.5436Z" fill="#CD9743"/>
</svg>
