<svg width="26" height="27" viewBox="0 0 26 27" fill="none" xmlns="http://www.w3.org/2000/svg">
<path d="M3.77975 24.8968C3.77975 25.8709 2.99013 26.6605 2.01609 26.6605C1.04206 26.6605 0.252441 25.8709 0.252441 24.8968C0.252441 23.9228 1.04206 23.1332 2.01609 23.1332C2.99013 23.1332 3.77975 23.9228 3.77975 24.8968Z" fill="url(#paint0_linear_105_777)"/>
<path d="M3.77975 20.3057C3.77975 21.2797 2.99013 22.0693 2.01609 22.0693C1.04206 22.0693 0.252441 21.2797 0.252441 20.3057C0.252441 19.3316 1.04206 18.542 2.01609 18.542C2.99013 18.542 3.77975 19.3316 3.77975 20.3057Z" fill="url(#paint1_linear_105_777)"/>
<path d="M1.31063 20.8176H2.72155L2.49938 22.5813L2.72155 24.3449H1.31063L1.50779 22.5813L1.31063 20.8176Z" fill="url(#paint2_linear_105_777)"/>
<path d="M3.77975 11.1234C3.77975 12.0974 2.99013 12.8871 2.01609 12.8871C1.04206 12.8871 0.252441 12.0974 0.252441 11.1234C0.252441 10.1494 1.04206 9.35975 2.01609 9.35975C2.99013 9.35975 3.77975 10.1494 3.77975 11.1234Z" fill="url(#paint3_linear_105_777)"/>
<path d="M3.77975 15.7145C3.77975 16.6886 2.99013 17.4782 2.01609 17.4782C1.04206 17.4782 0.252441 16.6886 0.252441 15.7145C0.252441 14.7405 1.04206 13.9509 2.01609 13.9509C2.99013 13.9509 3.77975 14.7405 3.77975 15.7145Z" fill="url(#paint4_linear_105_777)"/>
<path d="M25.863 22.5764C25.863 23.5505 25.0734 24.3401 24.0994 24.3401C23.1253 24.3401 22.3357 23.5505 22.3357 22.5764C22.3357 21.6024 23.1253 20.8128 24.0994 20.8128C25.0734 20.8128 25.863 21.6024 25.863 22.5764Z" fill="url(#paint5_linear_105_777)"/>
<path d="M25.863 17.9853C25.863 18.9593 25.0734 19.7489 24.0994 19.7489C23.1253 19.7489 22.3357 18.9593 22.3357 17.9853C22.3357 17.0112 23.1253 16.2216 24.0994 16.2216C25.0734 16.2216 25.863 17.0112 25.863 17.9853Z" fill="url(#paint6_linear_105_777)"/>
<path d="M23.3939 18.4972H24.8048L24.5827 20.2609L24.8048 22.0245H23.3939L23.5911 20.2609L23.3939 18.4972Z" fill="url(#paint7_linear_105_777)"/>
<path d="M25.863 13.3942C25.863 14.3682 25.0734 15.1578 24.0994 15.1578C23.1253 15.1578 22.3357 14.3682 22.3357 13.3942C22.3357 12.4201 23.1253 11.6305 24.0994 11.6305C25.0734 11.6305 25.863 12.4201 25.863 13.3942Z" fill="url(#paint8_linear_105_777)"/>
<path d="M7.95122 22.5947C7.95122 23.5687 7.1616 24.3584 6.18756 24.3584C5.21352 24.3584 4.42391 23.5687 4.42391 22.5947C4.42391 21.6207 5.21352 20.831 6.18756 20.831C7.1616 20.831 7.95122 21.6207 7.95122 22.5947Z" fill="url(#paint9_linear_105_777)"/>
<path d="M7.95122 8.83438C7.95122 9.80842 7.1616 10.598 6.18756 10.598C5.21352 10.598 4.42391 9.80842 4.42391 8.83438C4.42391 7.86035 5.21352 7.07073 6.18756 7.07073C7.1616 7.07073 7.95122 7.86035 7.95122 8.83438Z" fill="url(#paint10_linear_105_777)"/>
<path d="M7.95122 13.4211C7.95122 14.3952 7.1616 15.1848 6.18756 15.1848C5.21352 15.1848 4.42391 14.3952 4.42391 13.4211C4.42391 12.4471 5.21352 11.6575 6.18756 11.6575C7.1616 11.6575 7.95122 12.4471 7.95122 13.4211Z" fill="url(#paint11_linear_105_777)"/>
<path d="M7.95122 18.0079C7.95122 18.9819 7.1616 19.7716 6.18756 19.7716C5.21352 19.7716 4.42391 18.9819 4.42391 18.0079C4.42391 17.0339 5.21352 16.2443 6.18756 16.2443C7.1616 16.2443 7.95122 17.0339 7.95122 18.0079Z" fill="url(#paint12_linear_105_777)"/>
<path d="M16.6445 13.4211C16.6445 14.3952 15.8549 15.1848 14.8809 15.1848C13.9068 15.1848 13.1172 14.3952 13.1172 13.4211C13.1172 12.4471 13.9068 11.6575 14.8809 11.6575C15.8549 11.6575 16.6445 12.4471 16.6445 13.4211Z" fill="url(#paint13_linear_105_777)"/>
<path d="M16.6445 18.0079C16.6445 18.9819 15.8549 19.7716 14.8809 19.7716C13.9068 19.7716 13.1172 18.9819 13.1172 18.0079C13.1172 17.0339 13.9068 16.2443 14.8809 16.2443C15.8549 16.2443 16.6445 17.0339 16.6445 18.0079Z" fill="url(#paint14_linear_105_777)"/>
<path d="M21.5164 20.8846C21.5164 21.8586 20.7268 22.6482 19.7528 22.6482C18.7787 22.6482 17.9891 21.8586 17.9891 20.8846C17.9891 19.9105 18.7787 19.1209 19.7528 19.1209C20.7268 19.1209 21.5164 19.9105 21.5164 20.8846Z" fill="url(#paint15_linear_105_777)"/>
<path d="M21.5164 7.01721C21.5164 7.99125 20.7268 8.78086 19.7528 8.78086C18.7787 8.78086 17.9891 7.99125 17.9891 7.01721C17.9891 6.04317 18.7787 5.25356 19.7528 5.25356C20.7268 5.25356 21.5164 6.04317 21.5164 7.01721Z" fill="url(#paint16_linear_105_777)"/>
<path d="M21.5164 2.44822C21.5164 3.42226 20.7268 4.21188 19.7528 4.21188C18.7787 4.21188 17.9891 3.42226 17.9891 2.44822C17.9891 1.47418 18.7787 0.68457 19.7528 0.68457C20.7268 0.68457 21.5164 1.47418 21.5164 2.44822Z" fill="url(#paint17_linear_105_777)"/>
<path d="M12.2979 16.2621C12.2979 17.2361 11.5082 18.0258 10.5342 18.0258C9.56017 18.0258 8.77056 17.2361 8.77056 16.2621C8.77056 15.2881 9.56017 14.4984 10.5342 14.4984C11.5082 14.4984 12.2979 15.2881 12.2979 16.2621Z" fill="url(#paint18_linear_105_777)"/>
<path d="M12.2979 11.6397C12.2979 12.6137 11.5082 13.4033 10.5342 13.4033C9.56017 13.4033 8.77056 12.6137 8.77056 11.6397C8.77056 10.6656 9.56017 9.87603 10.5342 9.87603C11.5082 9.87603 12.2979 10.6656 12.2979 11.6397Z" fill="url(#paint19_linear_105_777)"/>
<path d="M3.77975 6.53227C3.77975 7.50631 2.99013 8.29592 2.01609 8.29592C1.04206 8.29592 0.252441 7.50631 0.252441 6.53227C0.252441 5.55823 1.04206 4.76861 2.01609 4.76861C2.99013 4.76861 3.77975 5.55823 3.77975 6.53227Z" fill="url(#paint20_linear_105_777)"/>
<path d="M1.31063 7.0442H2.72155L2.49938 8.80785L2.72155 10.5715H1.31063L1.50779 8.80785L1.31063 7.0442Z" fill="url(#paint21_linear_105_777)"/>
<path d="M25.6879 8.80301C25.6879 9.77705 24.8983 10.5667 23.9243 10.5667C22.9503 10.5667 22.1606 9.77705 22.1606 8.80301C22.1606 7.82898 22.9503 7.03936 23.9243 7.03936C24.8983 7.03936 25.6879 7.82898 25.6879 8.80301Z" fill="url(#paint22_linear_105_777)"/>
<path d="M25.6879 4.21188C25.6879 5.18591 24.8983 5.97553 23.9243 5.97553C22.9503 5.97553 22.1606 5.18591 22.1606 4.21188C22.1606 3.23784 22.9503 2.44822 23.9243 2.44822C24.8983 2.44822 25.6879 3.23784 25.6879 4.21188Z" fill="url(#paint23_linear_105_777)"/>
<path d="M23.2188 4.72381H24.6298L24.4076 6.48746L24.6298 8.25111H23.2188L23.416 6.48746L23.2188 4.72381Z" fill="url(#paint24_linear_105_777)"/>
<path d="M9.82875 12.1872H11.2397L11.0175 13.9509L11.2397 15.7145H9.82875L10.0259 13.9509L9.82875 12.1872Z" fill="url(#paint25_linear_105_777)"/>
<path d="M21.5164 16.2621C21.5164 17.2361 20.7268 18.0258 19.7528 18.0258C18.7787 18.0258 17.9891 17.2361 17.9891 16.2621C17.9891 15.2881 18.7787 14.4984 19.7528 14.4984C20.7268 14.4984 21.5164 15.2881 21.5164 16.2621Z" fill="url(#paint26_linear_105_777)"/>
<path d="M21.5164 11.6397C21.5164 12.6137 20.7268 13.4033 19.7528 13.4033C18.7787 13.4033 17.9891 12.6137 17.9891 11.6397C17.9891 10.6656 18.7787 9.87603 19.7528 9.87603C20.7268 9.87603 21.5164 10.6656 21.5164 11.6397Z" fill="url(#paint27_linear_105_777)"/>
<path d="M19.0473 12.1872H20.4582L20.236 13.9509L20.4582 15.7145H19.0473L19.2445 13.9509L19.0473 12.1872Z" fill="url(#paint28_linear_105_777)"/>
<defs>
<linearGradient id="paint0_linear_105_777" x1="-1.49156" y1="0.684571" x2="29.7154" y2="26.1221" gradientUnits="userSpaceOnUse">
<stop stop-color="#0050AD"/>
<stop offset="1" stop-color="#2CFFCC"/>
</linearGradient>
<linearGradient id="paint1_linear_105_777" x1="-1.49156" y1="0.684571" x2="29.7154" y2="26.1221" gradientUnits="userSpaceOnUse">
<stop stop-color="#0050AD"/>
<stop offset="1" stop-color="#2CFFCC"/>
</linearGradient>
<linearGradient id="paint2_linear_105_777" x1="-1.49156" y1="0.684571" x2="29.7154" y2="26.1221" gradientUnits="userSpaceOnUse">
<stop stop-color="#0050AD"/>
<stop offset="1" stop-color="#2CFFCC"/>
</linearGradient>
<linearGradient id="paint3_linear_105_777" x1="-1.49156" y1="0.684571" x2="29.7154" y2="26.1221" gradientUnits="userSpaceOnUse">
<stop stop-color="#0050AD"/>
<stop offset="1" stop-color="#2CFFCC"/>
</linearGradient>
<linearGradient id="paint4_linear_105_777" x1="-1.49156" y1="0.684571" x2="29.7154" y2="26.1221" gradientUnits="userSpaceOnUse">
<stop stop-color="#0050AD"/>
<stop offset="1" stop-color="#2CFFCC"/>
</linearGradient>
<linearGradient id="paint5_linear_105_777" x1="-1.49156" y1="0.684571" x2="29.7154" y2="26.1221" gradientUnits="userSpaceOnUse">
<stop stop-color="#0050AD"/>
<stop offset="1" stop-color="#2CFFCC"/>
</linearGradient>
<linearGradient id="paint6_linear_105_777" x1="-1.49156" y1="0.684571" x2="29.7154" y2="26.1221" gradientUnits="userSpaceOnUse">
<stop stop-color="#0050AD"/>
<stop offset="1" stop-color="#2CFFCC"/>
</linearGradient>
<linearGradient id="paint7_linear_105_777" x1="-1.49156" y1="0.684571" x2="29.7154" y2="26.1221" gradientUnits="userSpaceOnUse">
<stop stop-color="#0050AD"/>
<stop offset="1" stop-color="#2CFFCC"/>
</linearGradient>
<linearGradient id="paint8_linear_105_777" x1="-1.49156" y1="0.684571" x2="29.7154" y2="26.1221" gradientUnits="userSpaceOnUse">
<stop stop-color="#0050AD"/>
<stop offset="1" stop-color="#2CFFCC"/>
</linearGradient>
<linearGradient id="paint9_linear_105_777" x1="-1.49156" y1="0.684571" x2="29.7154" y2="26.1221" gradientUnits="userSpaceOnUse">
<stop stop-color="#0050AD"/>
<stop offset="1" stop-color="#2CFFCC"/>
</linearGradient>
<linearGradient id="paint10_linear_105_777" x1="-1.49156" y1="0.684571" x2="29.7154" y2="26.1221" gradientUnits="userSpaceOnUse">
<stop stop-color="#0050AD"/>
<stop offset="1" stop-color="#2CFFCC"/>
</linearGradient>
<linearGradient id="paint11_linear_105_777" x1="-1.49156" y1="0.684571" x2="29.7154" y2="26.1221" gradientUnits="userSpaceOnUse">
<stop stop-color="#0050AD"/>
<stop offset="1" stop-color="#2CFFCC"/>
</linearGradient>
<linearGradient id="paint12_linear_105_777" x1="-1.49156" y1="0.684571" x2="29.7154" y2="26.1221" gradientUnits="userSpaceOnUse">
<stop stop-color="#0050AD"/>
<stop offset="1" stop-color="#2CFFCC"/>
</linearGradient>
<linearGradient id="paint13_linear_105_777" x1="-1.49156" y1="0.684571" x2="29.7154" y2="26.1221" gradientUnits="userSpaceOnUse">
<stop stop-color="#0050AD"/>
<stop offset="1" stop-color="#2CFFCC"/>
</linearGradient>
<linearGradient id="paint14_linear_105_777" x1="-1.49156" y1="0.684571" x2="29.7154" y2="26.1221" gradientUnits="userSpaceOnUse">
<stop stop-color="#0050AD"/>
<stop offset="1" stop-color="#2CFFCC"/>
</linearGradient>
<linearGradient id="paint15_linear_105_777" x1="-1.49156" y1="0.684571" x2="29.7154" y2="26.1221" gradientUnits="userSpaceOnUse">
<stop stop-color="#0050AD"/>
<stop offset="1" stop-color="#2CFFCC"/>
</linearGradient>
<linearGradient id="paint16_linear_105_777" x1="-1.49156" y1="0.684571" x2="29.7154" y2="26.1221" gradientUnits="userSpaceOnUse">
<stop stop-color="#0050AD"/>
<stop offset="1" stop-color="#2CFFCC"/>
</linearGradient>
<linearGradient id="paint17_linear_105_777" x1="-1.49156" y1="0.684571" x2="29.7154" y2="26.1221" gradientUnits="userSpaceOnUse">
<stop stop-color="#0050AD"/>
<stop offset="1" stop-color="#2CFFCC"/>
</linearGradient>
<linearGradient id="paint18_linear_105_777" x1="-1.49156" y1="0.684571" x2="29.7154" y2="26.1221" gradientUnits="userSpaceOnUse">
<stop stop-color="#0050AD"/>
<stop offset="1" stop-color="#2CFFCC"/>
</linearGradient>
<linearGradient id="paint19_linear_105_777" x1="-1.49156" y1="0.684571" x2="29.7154" y2="26.1221" gradientUnits="userSpaceOnUse">
<stop stop-color="#0050AD"/>
<stop offset="1" stop-color="#2CFFCC"/>
</linearGradient>
<linearGradient id="paint20_linear_105_777" x1="-1.49156" y1="0.684571" x2="29.7154" y2="26.1221" gradientUnits="userSpaceOnUse">
<stop stop-color="#0050AD"/>
<stop offset="1" stop-color="#2CFFCC"/>
</linearGradient>
<linearGradient id="paint21_linear_105_777" x1="-1.49156" y1="0.684571" x2="29.7154" y2="26.1221" gradientUnits="userSpaceOnUse">
<stop stop-color="#0050AD"/>
<stop offset="1" stop-color="#2CFFCC"/>
</linearGradient>
<linearGradient id="paint22_linear_105_777" x1="-1.49156" y1="0.684571" x2="29.7154" y2="26.1221" gradientUnits="userSpaceOnUse">
<stop stop-color="#0050AD"/>
<stop offset="1" stop-color="#2CFFCC"/>
</linearGradient>
<linearGradient id="paint23_linear_105_777" x1="-1.49156" y1="0.684571" x2="29.7154" y2="26.1221" gradientUnits="userSpaceOnUse">
<stop stop-color="#0050AD"/>
<stop offset="1" stop-color="#2CFFCC"/>
</linearGradient>
<linearGradient id="paint24_linear_105_777" x1="-1.49156" y1="0.684571" x2="29.7154" y2="26.1221" gradientUnits="userSpaceOnUse">
<stop stop-color="#0050AD"/>
<stop offset="1" stop-color="#2CFFCC"/>
</linearGradient>
<linearGradient id="paint25_linear_105_777" x1="-1.49156" y1="0.684571" x2="29.7154" y2="26.1221" gradientUnits="userSpaceOnUse">
<stop stop-color="#0050AD"/>
<stop offset="1" stop-color="#2CFFCC"/>
</linearGradient>
<linearGradient id="paint26_linear_105_777" x1="-1.49156" y1="0.684571" x2="29.7154" y2="26.1221" gradientUnits="userSpaceOnUse">
<stop stop-color="#0050AD"/>
<stop offset="1" stop-color="#2CFFCC"/>
</linearGradient>
<linearGradient id="paint27_linear_105_777" x1="-1.49156" y1="0.684571" x2="29.7154" y2="26.1221" gradientUnits="userSpaceOnUse">
<stop stop-color="#0050AD"/>
<stop offset="1" stop-color="#2CFFCC"/>
</linearGradient>
<linearGradient id="paint28_linear_105_777" x1="-1.49156" y1="0.684571" x2="29.7154" y2="26.1221" gradientUnits="userSpaceOnUse">
<stop stop-color="#0050AD"/>
<stop offset="1" stop-color="#2CFFCC"/>
</linearGradient>
</defs>
</svg>
