<svg width="16" height="15" viewBox="0 0 16 15" fill="none" xmlns="http://www.w3.org/2000/svg">
<path fill-rule="evenodd" clip-rule="evenodd" d="M0.983398 3.08265C0.983398 1.73787 2.0659 0.647705 3.40123 0.647705H9.55571C10.891 0.647705 11.9735 1.73787 11.9735 3.08265V7.80497C11.9735 9.16425 10.8765 10.2104 9.55571 10.2104L6.51458 10.2104L4.00681 11.7257C3.45009 12.0621 2.74182 11.6583 2.74182 11.0044V10.1207C1.73444 9.83994 0.983398 8.92964 0.983398 7.80497V3.08265Z" fill="#5AB862"/>
<path fill-rule="evenodd" clip-rule="evenodd" d="M12.9757 6.42517H13.732C14.7436 6.42517 15.0468 7.25105 15.0468 8.26983V11.4181C15.0468 12.2027 14.5603 12.8729 13.8745 13.1396L13.8746 13.9784C13.8746 14.5496 13.2558 14.9032 12.7694 14.6093C12.747 14.5958 12.7255 14.581 12.7049 14.5649L11.0358 13.2629L8.6238 13.2627C8.14457 13.2627 7.67847 13.0401 7.37816 12.6812C7.27357 12.5562 7.18498 12.4097 7.12506 12.2443C7.00025 11.8997 7.01081 11.1982 7.01081 11.1982H9.55571C11.5339 11.1982 12.9757 9.87943 12.9757 7.80497V6.42517Z" fill="#5AB862"/>
</svg>
