<svg width="18" height="20" viewBox="0 0 18 20" fill="none" xmlns="http://www.w3.org/2000/svg">
<path d="M16.3974 9.66944C15.9634 8.80226 14.2285 7.0674 9.02693 7.06444C3.82532 7.06148 2.13702 8.70514 1.65947 9.66105C1.40329 10.1738 1.54727 11.1345 1.73581 11.9149C1.90137 12.6002 2.62767 12.9517 3.29619 12.7292L5.54398 11.9811C5.82512 11.8875 6.03881 11.6567 6.11053 11.3692L6.40203 10.2007C6.41918 10.132 6.43348 10.0574 6.48778 10.0119C6.63843 9.88572 7.16787 9.66418 9.02842 9.66524C10.8889 9.6663 11.4186 9.88842 11.5694 10.0148C11.6238 10.0603 11.6382 10.135 11.6554 10.2037L11.9482 11.3726C12.0203 11.6601 12.2342 11.8912 12.5155 11.9851L14.732 12.725C15.4134 12.9525 16.151 12.5841 16.31 11.8839C16.49 11.0918 16.6293 10.133 16.3974 9.66944Z" fill="#D74C4C"/>
<path fill-rule="evenodd" clip-rule="evenodd" d="M12.5264 1.49999C12.7997 1.74293 12.7693 2.16629 12.5264 2.43959L9.21456 6.01469C9.09342 6.15098 8.92143 6.23128 8.73916 6.23663C8.55688 6.24199 8.38047 6.17193 8.25153 6.04299L4.72035 2.51181C4.46179 2.25325 4.46179 1.83403 4.72035 1.57547C4.97891 1.3169 5.39813 1.3169 5.6567 1.57547L8.69136 4.61012L11.6409 1.57542C11.8839 1.30212 12.2531 1.25706 12.5264 1.49999Z" fill="#D74C4C"/>
<path fill-rule="evenodd" clip-rule="evenodd" d="M4.56019 4.82645C4.27204 4.8434 4.03312 4.64593 4.01617 4.35777L3.87468 1.34985C3.86623 1.20616 3.91742 1.06534 4.01617 0.960606C4.11492 0.855875 4.25249 0.796509 4.39643 0.796509H7.39795C7.6866 0.796509 7.89231 1.01949 7.89231 1.30815C7.89231 1.5968 7.6866 1.84182 7.39795 1.84182H4.95074L4.97751 4.35777C4.99446 4.64593 4.84835 4.8095 4.56019 4.82645Z" fill="#D74C4C"/>
</svg>
