<svg width="39" height="38" viewBox="0 0 39 38" fill="none" xmlns="http://www.w3.org/2000/svg">
<rect x="0.952881" y="0.903931" width="37.0644" height="37.0644" rx="7" fill="#F8F8F8"/>
<path d="M11.9334 11.4432C10.1461 11.4432 8.69751 12.892 8.69751 14.6791V25.4655C8.69751 27.6228 9.77615 28.7014 11.9334 28.7014H27.0343C29.1916 28.7014 30.2702 27.6228 30.2702 25.4655V16.8364C30.2702 16.2407 29.787 15.7578 29.1916 15.7578H28.1129V12.5219C28.1129 11.9261 27.6297 11.4432 27.0343 11.4432H11.9334ZM11.9334 13.6005H25.9557V15.7578H11.9334C11.338 15.7578 10.8548 15.2749 10.8548 14.6791C10.8548 14.0834 11.338 13.6005 11.9334 13.6005ZM24.877 20.0723C25.4724 20.0723 25.9557 20.5552 25.9557 21.151C25.9557 21.7467 25.4724 22.2296 24.877 22.2296C24.2816 22.2296 23.7984 21.7467 23.7984 21.151C23.7984 20.5552 24.2816 20.0723 24.877 20.0723Z" fill="#77D07F"/>
</svg>
