<svg width="34" height="33" viewBox="0 0 34 33" fill="none" xmlns="http://www.w3.org/2000/svg">
<path d="M32.6583 16.6344C32.6583 25.2934 25.6388 32.313 16.9797 32.313C8.32069 32.313 1.30115 25.2934 1.30115 16.6344C1.30115 7.97535 8.32069 0.955811 16.9797 0.955811C25.6388 0.955811 32.6583 7.97535 32.6583 16.6344Z" stroke="#AEAEAE"/>
<path d="M18.3857 24.9139C18.7631 24.9732 19.168 24.9471 19.5136 24.7656C20.2047 24.4013 20.3973 23.642 19.9367 23.0973L14.4849 16.645L19.9367 10.1927C20.3973 9.64809 20.2047 8.8887 19.5136 8.52444C18.8226 8.16136 17.8594 8.31322 17.3986 8.85902L11.3828 15.9782C11.0461 16.3757 11.0461 16.9144 11.3828 17.3119L17.3986 24.431C17.629 24.7039 18.0083 24.8546 18.3857 24.9139Z" fill="#AEAEAE"/>
</svg>
