<svg width="33" height="33" viewBox="0 0 33 33" fill="none" xmlns="http://www.w3.org/2000/svg">
<path d="M32.8081 16.6344C32.8081 25.5696 25.5647 32.813 16.6295 32.813C7.69433 32.813 0.450928 25.5696 0.450928 16.6344C0.450928 7.69921 7.69433 0.455811 16.6295 0.455811C25.5647 0.455811 32.8081 7.69921 32.8081 16.6344Z" fill="#E4EEF5"/>
<path d="M14.901 8.35504C14.5235 8.29572 14.1186 8.32182 13.773 8.50336C13.0819 8.86762 12.8893 9.62701 13.35 10.1716L18.8017 16.6239L13.35 23.0763C12.8893 23.6209 13.0819 24.3803 13.773 24.7445C14.4641 25.1076 15.4272 24.9557 15.888 24.4099L21.9038 17.2908C22.2405 16.8933 22.2405 16.3546 21.9038 15.9571L15.888 8.83794C15.6576 8.56504 15.2783 8.41437 14.901 8.35504Z" fill="#479DD7"/>
</svg>
