<svg width="38" height="38" viewBox="0 0 38 38" fill="none" xmlns="http://www.w3.org/2000/svg">
<path d="M0.430176 7.9038C0.430176 4.03781 3.56418 0.903809 7.43018 0.903809H30.4946C34.3606 0.903809 37.4946 4.03782 37.4946 7.90381V30.9682C37.4946 34.8342 34.3606 37.9682 30.4946 37.9682H7.43017C3.56417 37.9682 0.430176 34.8342 0.430176 30.9682V7.9038Z" fill="#F8F8F8"/>
<path d="M23.0396 8.95093C20.1444 8.95093 17.7974 11.2983 17.7974 14.1931C17.7974 17.0879 20.1444 19.4353 23.0396 19.4353C25.9348 19.4353 28.2818 17.0879 28.2818 14.1931C28.2818 11.2983 25.9348 8.95093 23.0396 8.95093ZM14.3027 10.1159C11.7292 10.1159 9.64296 12.2022 9.64296 14.7756C9.64296 17.3489 11.7292 19.4353 14.3027 19.4353C15.2689 19.4353 16.1508 19.1697 16.927 18.6268C14.9364 15.6679 15.2185 12.8348 16.3034 10.5527C15.6838 10.2591 15.0033 10.1159 14.3027 10.1159ZM10.8807 21.0009C8.74411 21.8828 7.31311 24.0437 7.31311 26.4248V28.7547C7.31311 29.3977 7.83465 29.9196 8.47804 29.9196L13.3157 29.9219C13.0431 29.0366 13.1233 27.6014 13.1412 26.44C13.1791 23.9738 14.199 22.2147 14.5984 21.7511C13.8643 21.7453 12.9833 21.5671 12.3369 21.2921C12.1808 21.2257 12.0901 21.1733 11.7909 21.037C11.4974 20.9031 11.1787 20.8774 10.8807 21.0009ZM19.0352 21.0009C16.8986 21.8828 15.4676 24.0437 15.4676 26.4248V28.7547C15.4676 29.3977 15.9891 29.9196 16.6325 29.9196H29.4467C30.0901 29.9196 30.6116 29.3977 30.6116 28.7547V26.4248C30.6116 24.0996 29.1727 21.9911 27.044 21.0732C26.7444 20.9438 26.3953 20.9404 26.0975 21.0732C25.0668 21.5356 24.0627 21.7651 23.0396 21.7651C22.0201 21.7651 21.0124 21.5228 19.9453 21.037C19.6519 20.9031 19.3332 20.8774 19.0352 21.0009Z" fill="#4CB4D5"/>
</svg>
