<svg width="31" height="31" viewBox="0 0 31 31" fill="none" xmlns="http://www.w3.org/2000/svg">
<circle cx="15.3" cy="15.8496" r="15.0691" fill="#C4C4C4"/>
<path d="M9.15102 11.2997C8.83709 12.2426 8.83708 14.7569 12.6043 18.5283C16.3714 22.2998 18.7859 22.3322 19.8247 21.9855C20.3819 21.7996 20.9737 20.9991 21.4026 20.297C21.7792 19.6804 21.5076 18.8994 20.862 18.5762L18.691 17.4894C18.4195 17.3535 18.0974 17.3659 17.8371 17.5223L16.7791 18.1578C16.7168 18.1952 16.6524 18.2389 16.5801 18.2325C16.3795 18.2147 15.8353 17.9916 14.4878 16.6426C13.1404 15.2937 12.9175 14.7488 12.8998 14.548C12.8934 14.4756 12.9371 14.4111 12.9744 14.3488L13.6092 13.2896C13.7654 13.029 13.7778 12.7065 13.642 12.4347L12.572 10.2923C12.2431 9.63365 11.4416 9.36618 10.819 9.75829C10.1146 10.2019 9.31883 10.7957 9.15102 11.2997Z" fill="#F8F8F8"/>
</svg>
