<svg width="15" height="12" viewBox="0 0 15 12" fill="none" xmlns="http://www.w3.org/2000/svg">
<path d="M7.61926 0.595703V2.50898H11.0268L8.36639 5.16939C8.28029 5.25645 8.01148 5.37889 7.88807 5.37889H6.39381C5.76338 5.37889 4.98563 5.68024 4.53984 6.12603L1.1918 9.47426C0.818229 9.84831 0.818229 10.4759 1.1918 10.8499C1.37863 11.0364 1.63463 11.1187 1.87943 11.1187C2.12423 11.1187 2.38023 11.0364 2.56707 10.8499L5.91549 7.50167C6.00158 7.41461 6.2704 7.29217 6.39381 7.29217H7.88807C8.5185 7.29217 9.29625 6.99082 9.74204 6.54503L12.4024 3.88461V7.29217H14.3157V1.55234C14.3157 1.02428 13.8871 0.595703 13.3591 0.595703H7.61926Z" fill="#808080"/>
</svg>
